<?xml version="1.0" standalone="no"?>
<!DOCTYPE svg PUBLIC "-//W3C//DTD SVG 1.1//EN" "http://www.w3.org/Graphics/SVG/1.1/DTD/svg11.dtd" >
<svg xmlns="http://www.w3.org/2000/svg">
<metadata>
This is a custom SVG webfont generated by Font Squirrel.
Copyright   : Copyright c 2006 by Georg Seifert All rights reserved
Designer    : Georg Seifert
Foundry     : Georg Seifert
Foundry URL : wwwfontsinfo
</metadata>
<defs>
<font id="webfont1OpJtlVt" horiz-adv-x="1064" >
<font-face units-per-em="2048" ascent="1638" descent="-410" />
<missing-glyph horiz-adv-x="483" />
<glyph unicode=" "  horiz-adv-x="483" />
<glyph unicode="&#x09;" horiz-adv-x="483" />
<glyph unicode="&#xa0;" horiz-adv-x="483" />
<glyph unicode="!" horiz-adv-x="532" d="M227 92q0 51 35 86t84 35q47 0 81 -35t34 -86t-34 -86t-81 -35q-51 0 -85 35t-34 86zM227 1513h193l-17 -1062h-161z" />
<glyph unicode="&#x22;" horiz-adv-x="710" d="M94 1536v209h185v-207l-27 -340h-133zM436 1536v209h180v-207l-24 -340h-135z" />
<glyph unicode="#" horiz-adv-x="1179" d="M98 313v146h203v422h-203v143h205v498h164v-498h248v498h168v-498h198v-143h-198v-422h196v-146h-196v-512h-166v512h-250v-512h-164v512h-205zM467 459h248v422h-248v-422z" />
<glyph unicode="$" horiz-adv-x="962" d="M70 76l57 164q119 -88 264 -111l31 582q-78 66 -117 102.5t-93 101t-77.5 131t-23.5 142.5q0 156 100 247t254 103l12 223h135l-12 -229q102 -12 225 -64l-47 -143q-84 43 -186 59l-31 -548q78 -66 119 -105t96 -105.5t81 -137t26 -152.5q0 -156 -100.5 -249t-266.5 -107 l-14 -259h-131l12 261q-184 18 -313 94zM295 1202q0 -123 139 -256l23 438q-72 -12 -117 -58t-45 -124zM524 129q80 16 127 68.5t47 132.5q0 129 -149 272z" />
<glyph unicode="%" horiz-adv-x="1263" d="M78 1126q0 113 66.5 205t197.5 92q123 0 191.5 -78.5t68.5 -218.5q0 -119 -71.5 -210t-194.5 -91q-121 0 -189.5 88t-68.5 213zM121 217l926 1098l98 -107l-926 -1095zM219 1126q0 -74 31 -124t90 -50q61 0 92 51.5t31 122.5q0 76 -35 123t-88 47q-61 0 -91 -52t-30 -118 zM657 272q0 113 67 205t198 92q125 0 192.5 -77.5t67.5 -219.5q0 -119 -69 -210t-193 -91q-121 0 -192 88t-71 213zM799 272q0 -74 30.5 -123t90.5 -49q61 0 91.5 51.5t30.5 120.5q0 78 -33.5 124t-88.5 46q-61 0 -91 -51t-30 -119z" />
<glyph unicode="&#x26;" horiz-adv-x="1126" d="M102 330q0 225 226 413q-111 166 -111 332t91 261.5t263 95.5q154 0 246 -76t92 -203q0 -53 -22.5 -105.5t-46 -88t-81 -87t-84.5 -72.5l-102 -77q45 -53 112 -125l117 -125l163 -168l172 -176l-115 -139l-168 174q-190 -190 -401 -191q-170 0 -260.5 99.5t-90.5 257.5z M279 338q0 -92 53 -159.5t141 -67.5q123 0 279 159q-246 254 -320 340q-153 -139 -153 -272zM391 1087q0 -106 86 -235q63 43 98 69.5t77 65.5t60.5 77t18.5 79q0 72 -52 110.5t-116 38.5q-78 2 -125 -56.5t-47 -148.5z" />
<glyph unicode="'" horiz-adv-x="372" d="M94 1536v209h185v-207l-27 -340h-133z" />
<glyph unicode="(" horiz-adv-x="559" d="M121 682q0 193 27.5 357.5t83 304t102.5 227.5t123 209l118 -84q-55 -98 -93 -176t-88 -211t-76.5 -292t-26.5 -331q0 -565 287 -1026l-123 -80q-334 465 -334 1102z" />
<glyph unicode=")" horiz-adv-x="550" d="M-18 1700l129 80q152 -254 235.5 -502t83.5 -596q0 -184 -24.5 -343t-77 -297t-98.5 -233.5t-124 -228.5l-122 82q137 254 205.5 476t68.5 542q0 217 -44 414.5t-91 306.5t-141 299z" />
<glyph unicode="*" horiz-adv-x="999" d="M127 682l53 168l291 -139l-35 391h185l-29 -393l291 149l55 -168l-324 -102l224 -305l-142 -105l-168 326l-155 -328l-144 103l215 309z" />
<glyph unicode="+" horiz-adv-x="999" d="M98 510v147h322v412h160v-412h319v-147h-319v-434h-160v434h-322z" />
<glyph unicode="," horiz-adv-x="454" d="M88 -244q100 119 100 224q0 39 -26.5 80.5t-26.5 82.5t27.5 69t73.5 28q61 0 97 -55.5t36 -143.5q0 -184 -174 -375z" />
<glyph unicode="-" horiz-adv-x="755" d="M104 596v145h541v-145h-541z" />
<glyph unicode="." horiz-adv-x="458" d="M127 92q0 51 35 86t84 35q47 0 80.5 -35t33.5 -86t-33.5 -86t-80.5 -35q-51 0 -85 35t-34 86z" />
<glyph unicode="/" horiz-adv-x="686" d="M39 -180l498 1855l157 -49l-499 -1855z" />
<glyph unicode="0" horiz-adv-x="1085" d="M92 664q0 135 23.5 254.5t75 226t145.5 169t221 62.5q102 0 181 -42t126 -109.5t77 -160.5t41 -185.5t11 -194.5q0 -137 -22.5 -256t-72.5 -224.5t-143 -167t-220 -61.5q-129 0 -220.5 62.5t-137.5 169t-65.5 218.5t-19.5 239zM272 676q0 -555 271 -555q76 0 131 46 t86 127t44 174t13 202q0 111 -13 205t-43 178t-85 132t-131 48q-96 0 -161 -85t-88.5 -203.5t-23.5 -268.5z" />
<glyph unicode="1" horiz-adv-x="661" d="M25 1130l337 232h140v-1362h-176v1147l-242 -139z" />
<glyph unicode="2" horiz-adv-x="866" d="M55 0v113q223 262 367.5 491.5t144.5 411.5q0 106 -53 162.5t-152 56.5q-129 0 -258 -70l-43 133q164 82 326 82q180 0 269 -93t89 -253q0 -109 -39.5 -228.5t-106.5 -230t-132 -201.5l-137 -184q-25 -29 -35 -43h487v-147h-727z" />
<glyph unicode="3" horiz-adv-x="839" d="M47 1323q145 51 283 51q168 0 268 -83t100 -242q0 -229 -196 -338q123 -27 188.5 -131.5t65.5 -249.5q0 -248 -165 -388.5t-425 -140.5q-68 0 -111 9v147q55 -6 121 -6q166 0 279.5 102.5t113.5 276.5q0 135 -78.5 211.5t-257.5 62.5l-81 -6l-7 135l82 6q131 12 210 88 t79 197q0 102 -57.5 153.5t-151.5 51.5q-111 0 -221 -45z" />
<glyph unicode="4" horiz-adv-x="872" d="M20 440l353 987h168l-330 -960h336l24 463h136v-463h145v-143h-145v-324h-164v324h-486z" />
<glyph unicode="5" horiz-adv-x="843" d="M92 -33q39 -8 92 -8q186 0 298 110.5t112 307.5q0 301 -279 301q-98 0 -190 -25l35 699h579v-135h-430l-20 -410q59 6 96 6q176 0 283.5 -106.5t107.5 -329.5q0 -274 -158.5 -419.5t-429.5 -145.5q-61 0 -96 6v149z" />
<glyph unicode="6" horiz-adv-x="1046" d="M115 614q0 920 626 920q72 0 109 -6l4 -150q-250 33 -384 -97t-167 -437q119 78 258 78q184 0 282.5 -122t98.5 -337q0 -217 -111.5 -354.5t-302.5 -137.5q-84 0 -151.5 29t-111.5 80t-74.5 112.5t-47 138.5t-22.5 144t-6 139zM293 616q0 -500 239 -499q111 0 168.5 96 t57.5 244q0 328 -234 327q-96 0 -231 -84v-84z" />
<glyph unicode="7" horiz-adv-x="735" d="M-6 1206v146h700l17 -103l-453 -1411h-184l438 1368h-518z" />
<glyph unicode="8" horiz-adv-x="987" d="M86 358q0 240 254 441q-213 164 -213 372q0 168 108.5 268.5t262.5 100.5q152 0 259 -95t107 -255q0 -119 -65.5 -222.5t-157.5 -174.5q123 -86 191.5 -182.5t68.5 -245.5q0 -188 -118.5 -291t-288.5 -103t-289 103.5t-119 283.5zM260 375q0 -113 67.5 -187.5 t166.5 -74.5q96 0 165.5 68.5t69.5 176.5q0 111 -68.5 187t-203.5 168q-197 -168 -197 -338zM299 1182q0 -100 56.5 -169t162.5 -139q174 137 174 302q0 92 -59.5 159.5t-140.5 67.5q-80 0 -136.5 -62.5t-56.5 -158.5z" />
<glyph unicode="9" horiz-adv-x="1046" d="M96 885q0 217 111.5 354t302.5 137q84 0 151.5 -28.5t111.5 -79.5t75 -112.5t47 -138.5t22.5 -144.5t6.5 -139.5q0 -920 -627 -919q-72 0 -109 6l-4 149q248 -33 382 97.5t167 435.5q-117 -76 -256 -76q-184 0 -282.5 122t-98.5 337zM281 891q0 -328 233 -328 q98 0 229 84q2 27 2 84q0 500 -239 500q-111 0 -168 -96.5t-57 -243.5z" />
<glyph unicode=":" horiz-adv-x="522" d="M166 92q0 51 35 86t84 35q47 0 80.5 -35t33.5 -86t-33.5 -86t-80.5 -35q-51 0 -85 35t-34 86zM166 1012q0 51 35 86t84 35q47 0 80.5 -35t33.5 -86t-33.5 -86t-80.5 -35q-51 0 -85 35t-34 86z" />
<glyph unicode=";" horiz-adv-x="522" d="M141 -244q100 119 101 224q0 39 -27 80.5t-27 82.5t28 69t73 28q61 0 97 -55.5t36 -143.5q0 -184 -174 -375zM166 1012q0 51 35 86t84 35q47 0 80.5 -35t33.5 -86t-33.5 -86t-80.5 -35q-51 0 -85 35t-34 86z" />
<glyph unicode="&#x3c;" horiz-adv-x="905" d="M117 586l567 583l96 -110l-446 -473l444 -473l-92 -115z" />
<glyph unicode="=" horiz-adv-x="999" d="M98 313v148h801v-148h-801zM98 709v147h801v-147h-801z" />
<glyph unicode="&#x3e;" horiz-adv-x="999" d="M168 1061l98 108l568 -583l-574 -588l-88 115l438 473z" />
<glyph unicode="?" horiz-adv-x="804" d="M106 1405q158 104 318 104t233.5 -86t73.5 -215q0 -94 -40 -180t-88 -142.5t-88 -144.5t-40 -188v-111h-174v121q0 98 25.5 178t62.5 134.5t74 102.5t62.5 103.5t25.5 116.5q0 82 -44 125t-118 43q-100 0 -223 -86zM274 92q0 51 34 86t83 35t82 -35t33 -86t-33 -86 t-82 -35t-83 35t-34 86z" />
<glyph unicode="@" horiz-adv-x="1757" d="M125 489q0 438 222 702.5t568 264.5q315 0 515 -225t200 -625q0 -115 -18.5 -219t-58.5 -199.5t-113.5 -153t-173.5 -57.5q-90 0 -133 45.5t-58 129.5q-41 -78 -110.5 -126.5t-155.5 -48.5q-102 0 -172 74t-98.5 177.5t-28.5 222.5q0 258 123 434t307 176q123 0 260 -88 v-645q0 -219 100 -219q82 0 124 135t42 338q0 334 -139 536.5t-399 202.5q-276 0 -458.5 -217t-182.5 -608q0 -354 157.5 -577.5t454.5 -223.5q184 0 344 69l41 -133q-190 -70 -395 -69q-365 0 -564.5 255.5t-199.5 671.5zM676 473q0 -154 48 -257t132 -103q59 0 112.5 55 t71.5 135v598q-49 29 -102 29q-123 0 -192.5 -133.5t-69.5 -323.5z" />
<glyph unicode="A" horiz-adv-x="1085" d="M2 0l432 1513h199l450 -1513h-192l-129 440h-459l-125 -440h-176zM340 582h383l-195 772z" />
<glyph unicode="B" horiz-adv-x="1071" d="M190 0v1513h332q446 0 447 -378q0 -231 -176 -324q225 -102 225 -381q0 -242 -129 -336t-373 -94h-326zM365 143h161q154 0 229.5 63.5t75.5 225.5q0 293 -323 293h-143v-582zM365 860h122q295 0 295 264q0 246 -264 246h-153v-510z" />
<glyph unicode="C" horiz-adv-x="948" d="M86 745q0 795 567 795q141 0 279 -49l-31 -148q-27 14 -100.5 32t-145.5 18q-385 0 -385 -627q0 -643 375 -643q135 0 268 59l21 -149q-137 -57 -293 -58q-555 0 -555 770z" />
<glyph unicode="D" horiz-adv-x="1245" d="M188 0v1513h357q608 0 608 -745q0 -131 -16.5 -238.5t-58.5 -209t-109.5 -170t-177 -109.5t-254.5 -41h-349zM362 145h185q104 0 181 33t123 86t73.5 135t37 166t9.5 195q0 137 -19.5 239.5t-66.5 189.5t-138.5 133t-222.5 46h-162v-1223z" />
<glyph unicode="E" horiz-adv-x="1019" d="M188 0v1513h734v-145h-560v-508h504v-143h-504v-572h596v-145h-770z" />
<glyph unicode="F" horiz-adv-x="888" d="M188 0v1513h709v-145h-535v-557h469v-143h-469v-668h-174z" />
<glyph unicode="G" horiz-adv-x="1212" d="M104 729q0 377 149.5 594t453.5 217q168 0 358 -67l-39 -146q-158 66 -324 66q-414 0 -413 -645q0 -627 391 -627q123 0 242 55v510h168v-604q-186 -109 -420 -109q-152 0 -262.5 55.5t-176 159t-96.5 237.5t-31 304z" />
<glyph unicode="H" horiz-adv-x="1323" d="M190 0v1513h177v-645h591v645h177v-1513h-177v723h-591v-723h-177z" />
<glyph unicode="I" horiz-adv-x="552" d="M190 0v1513h172v-1513h-172z" />
<glyph unicode="J" horiz-adv-x="657" d="M-8 92q70 23 114 44.5t88 58t66.5 88t36.5 128t14 183.5v919h174v-925q0 -141 -22.5 -244.5t-57 -167t-99 -111t-124 -71t-157.5 -51.5z" />
<glyph unicode="K" horiz-adv-x="1105" d="M188 0v1513h177v-772l491 772h227l-446 -639l498 -874h-226l-381 735l-163 -237v-498h-177z" />
<glyph unicode="L" horiz-adv-x="937" d="M188 0v1513h174v-1361h566v-152h-740z" />
<glyph unicode="M" horiz-adv-x="1542" d="M125 0l86 1513h170l389 -1196l397 1196h164l88 -1513h-178l-57 1157l-371 -1157h-100l-373 1157l-59 -1157h-156z" />
<glyph unicode="N" horiz-adv-x="1363" d="M188 0v1513h136l686 -1142v1142h166v-1513h-129l-691 1159v-1159h-168z" />
<glyph unicode="O" horiz-adv-x="1277" d="M90 727q0 162 27.5 299t90 257t176.5 188.5t269 68.5q150 0 257.5 -61.5t166 -171t85 -238.5t26.5 -283q0 -813 -565 -813q-533 0 -533 754zM272 735q0 -616 359 -616q373 0 373 659q0 616 -361 617q-371 -1 -371 -660z" />
<glyph unicode="P" horiz-adv-x="1048" d="M186 0v1513h324q481 0 481 -466q0 -233 -119.5 -361.5t-343.5 -128.5q-109 0 -166 18v-575h-176zM362 719q63 -18 146 -19q158 0 226.5 83t68.5 247q0 168 -72 253t-239 85h-130v-649z" />
<glyph unicode="Q" horiz-adv-x="1284" d="M90 727q0 162 27.5 299t90 257t176.5 188.5t269 68.5q150 0 257.5 -61.5t166 -171t85 -238.5t26.5 -283q0 -627 -340 -772q125 -43 309 -113l281 -106q96 -35 224 -63.5t239 -28.5q104 0 260 21l-11 -138q-141 -18 -264 -18q-141 0 -308 40t-294 89l-348 137 q-221 88 -369 141q-477 37 -477 752zM272 735q0 -616 359 -616q373 0 373 659q0 616 -361 617q-371 -1 -371 -660z" />
<glyph unicode="R" horiz-adv-x="1085" d="M188 0v1513h301q252 0 372 -99t120 -314q0 -311 -248 -416l293 -684h-209l-244 639q-68 -11 -158 -11q-26 0 -53 1v-629h-174zM362 770q25 -1 49 -1q65 0 117 8q72 11 136.5 44t99.5 101.5t35 169.5q0 150 -76 215q-71 62 -217 61h-19l-125 -2v-596z" />
<glyph unicode="S" horiz-adv-x="929" d="M49 72l51 164q174 -113 349 -113q111 0 178 58.5t67 160.5q0 82 -45 153.5t-112 122.5l-148 112q-80 60 -147.5 118.5t-112.5 145.5t-45 190q0 172 114.5 264t284.5 92q147 0 320 -70l-41 -145q-135 68 -270 68q-96 0 -161 -49.5t-65 -149.5q0 -76 45 -144.5t113 -117.5 l147 -111q80 -61 147.5 -121.5t113 -152.5t45.5 -203q0 -182 -123 -275.5t-308 -93.5q-217 1 -397 97z" />
<glyph unicode="T" horiz-adv-x="921" d="M-37 1366v147h995v-147h-413v-1366h-174v1366h-408z" />
<glyph unicode="U" horiz-adv-x="1286" d="M178 465v1048h176v-1011q0 -184 64.5 -278.5t226.5 -94.5t225.5 99.5t63.5 277.5v1007h174v-1044q0 -221 -114.5 -358.5t-360.5 -137.5q-244 0 -349.5 135.5t-105.5 356.5z" />
<glyph unicode="V" horiz-adv-x="1062" d="M-20 1513h192l365 -1206l362 1206h184l-497 -1513h-107z" />
<glyph unicode="W" horiz-adv-x="1562" d="M33 1513h186l174 -1177l326 1177h139l326 -1177l176 1177h168l-256 -1513h-137l-355 1217l-356 -1217h-137z" />
<glyph unicode="X" horiz-adv-x="1007" d="M-10 0l395 788l-367 725h211l287 -589l275 589h196l-371 -725l406 -788h-211l-315 645l-310 -645h-196z" />
<glyph unicode="Y" horiz-adv-x="974" d="M-33 1513h199l326 -837l331 837h183l-431 -1017v-496h-174v492z" />
<glyph unicode="Z" horiz-adv-x="907" d="M0 123l678 1239h-623v151h824l22 -112l-678 -1249h684v-152h-884z" />
<glyph unicode="[" horiz-adv-x="612" d="M162 -270v2052h403v-135h-252v-1782h252v-135h-403z" />
<glyph unicode="\" horiz-adv-x="569" d="M-68 1632l160 51l500 -1863l-162 -49z" />
<glyph unicode="]" horiz-adv-x="610" d="M47 -135h250v1782h-250v135h402v-2052h-402v135z" />
<glyph unicode="^" horiz-adv-x="972" d="M0 631l403 928h160l404 -928h-193l-293 733l-288 -733h-193z" />
<glyph unicode="_" horiz-adv-x="878" d="M14 -27h846v-133h-846v133z" />
<glyph unicode="`" horiz-adv-x="249" d="M-72 1540l156 84l192 -319l-114 -56z" />
<glyph unicode="a" horiz-adv-x="927" d="M90 272q0 117 70.5 190t177 100.5t258.5 31.5v209q0 106 -37 149t-113 43q-109 0 -266 -77l-39 133q209 80 330 79q160 0 228.5 -82.5t68.5 -240.5v-496q0 -96 20 -311h-145l-18 106q-4 -2 -36 -25.5t-43 -30.5t-43 -25.5t-52.5 -25.5t-52 -14.5t-62.5 -7.5 q-119 0 -182.5 84t-63.5 211zM252 291q0 -84 39 -134.5t106 -50.5q66 0 201 103v276q-55 -2 -96 -5t-91.5 -15t-82 -31.5t-54 -56.5t-22.5 -86z" />
<glyph unicode="b" horiz-adv-x="1046" d="M166 72v1591h174v-590q111 61 242 62q178 0 268 -142.5t90 -410.5q0 -281 -103.5 -446t-330.5 -165q-182 1 -340 101zM340 164q66 -47 170 -47q248 0 248 454q0 209 -51.5 313.5t-168 104.5t-198.5 -61v-764z" />
<glyph unicode="c" horiz-adv-x="821" d="M106 547q0 289 109 433t311 144q145 0 246 -49l-37 -145q-94 55 -200 55q-248 0 -248 -418q0 -215 65.5 -330.5t184.5 -115.5q94 0 202 55l37 -135q-115 -61 -272 -61q-195 0 -296.5 144t-101.5 423z" />
<glyph unicode="d" horiz-adv-x="1048" d="M109 545q0 260 103 425t325 165q82 0 172 -27v555h174v-1624q-193 -68 -363 -68q-411 1 -411 574zM289 551q0 -436 239 -436q96 0 181 30v801q-72 43 -174 43q-246 0 -246 -438z" />
<glyph unicode="e" horiz-adv-x="942" d="M109 543q0 588 399 587q350 0 350 -464q0 -68 -8 -115h-584q2 -229 62.5 -333.5t201.5 -104.5q111 0 265 80l41 -134q-168 -86 -320 -86q-217 0 -312 149t-95 421zM268 666h426v15q0 159 -41 240q-43 85 -153 85q-207 0 -232 -340z" />
<glyph unicode="f" horiz-adv-x="589" d="M61 973v131h127v215q0 193 75 284t247 91q119 0 238 -45l-37 -131q-94 39 -176 38q-100 0 -136.5 -53t-36.5 -184v-215h240v-131h-240v-973h-174v973h-127z" />
<glyph unicode="g" horiz-adv-x="923" d="M70 -258q0 41 10 80t19.5 65.5t36 64.5t36.5 50t46 52t40 46q-55 61 -55 156q0 78 59 166q-135 92 -135 326q0 197 91 292t243 95q86 0 153 -31q72 109 130.5 172t121.5 80l54 -135q-123 -33 -211 -187q90 -104 90 -286q0 -193 -93.5 -285t-246.5 -92q-51 0 -90 8 q-25 -43 -25 -94q0 -61 55.5 -101.5t133 -66t156.5 -58t134.5 -105.5t55.5 -183q0 -76 -26 -134.5t-65.5 -94.5t-96 -59.5t-113 -31.5t-117.5 -8q-180 0 -285.5 74.5t-105.5 224.5zM217 -227q0 -102 66.5 -154.5t177.5 -52.5q109 0 181.5 45t72.5 143q0 53 -21.5 93 t-64.5 67t-84 43l-100.5 37.5t-94.5 40.5q-72 -88 -102.5 -142t-30.5 -120zM276 750q0 -254 187 -254q184 0 184 252q0 260 -188 260q-183 0 -183 -258z" />
<glyph unicode="h" horiz-adv-x="1083" d="M166 0v1665h174l-6 -684q184 150 342 149q250 0 250 -348v-782h-174v754q0 223 -140 223q-115 0 -272 -143v-834h-174z" />
<glyph unicode="i" horiz-adv-x="526" d="M152 1460q0 51 31.5 85t78.5 34t80 -34t33 -85t-33 -84t-80 -33q-49 0 -79.5 33t-30.5 84zM176 0v1104h176v-1104h-176z" />
<glyph unicode="j" horiz-adv-x="526" d="M-72 -334q94 25 144.5 56.5t78 103.5t27.5 194v1084h174v-1073q0 -240 -79.5 -347.5t-311.5 -158.5zM154 1460q0 51 31.5 85t78.5 34t80 -34t33 -85t-33 -84t-80 -33q-49 0 -79.5 33t-30.5 84z" />
<glyph unicode="k" horiz-adv-x="935" d="M166 0v1663h174v-825l-6 -281l364 547h211l-354 -471l385 -633h-213l-276 494l-117 -158v-336h-168z" />
<glyph unicode="l" horiz-adv-x="516" d="M170 0v1663h176v-1663h-176z" />
<glyph unicode="m" horiz-adv-x="1642" d="M166 0v1104h156l12 -127q96 78 174 115.5t166 37.5q174 0 219 -159q195 160 354 159q115 0 175.5 -71.5t60.5 -247.5v-811h-174v778q0 111 -31 155t-98 44q-63 0 -125 -35t-144 -113v-18v-811h-174v778q0 111 -30.5 155t-98.5 44q-117 0 -268 -146v-831h-174z" />
<glyph unicode="n" horiz-adv-x="1083" d="M166 0v1104h156l12 -127q98 78 178 115.5t172 37.5q117 0 178.5 -71.5t61.5 -247.5v-811h-174v778q0 111 -32 155t-102 44q-119 0 -276 -146v-831h-174z" />
<glyph unicode="o" horiz-adv-x="1044" d="M106 541q0 268 104.5 428.5t324.5 160.5q403 0 403 -563q0 -274 -103.5 -434t-318.5 -160q-209 0 -309.5 154t-100.5 414zM285 549q0 -434 235 -434q240 0 240 448q0 428 -234 428q-241 0 -241 -442z" />
<glyph unicode="p" horiz-adv-x="1046" d="M166 -555v1624q193 68 362 68q412 0 412 -574q0 -260 -103.5 -425t-324.5 -165q-82 0 -172 27v-555h-174zM340 162q72 -43 174 -43q246 0 246 438q0 436 -240 436q-96 0 -180 -30v-801z" />
<glyph unicode="q" horiz-adv-x="1048" d="M113 526q0 281 103 446t331 165q182 0 340 -101v-1591h-174v590q-111 -61 -242 -62q-178 0 -268 142.5t-90 410.5zM295 537q0 -209 51 -313.5t168 -104.5t199 61v764q-66 47 -170 47q-248 1 -248 -454z" />
<glyph unicode="r" horiz-adv-x="772" d="M166 0v1104h172v-227q82 139 163 199q67 50 170 50q21 0 44 -2l-10 -159q-15 1 -29 1q-91 0 -167 -57q-87 -66 -171 -245v-664h-172z" />
<glyph unicode="s" horiz-adv-x="780" d="M80 35l43 145q123 -72 239 -71q82 0 126 42t44 113q0 66 -44 120t-107 96l-127 87q-63 45 -107.5 115t-44.5 158q0 141 92.5 219t231.5 78q102 0 244 -47l-33 -142q-117 49 -192.5 49t-119.5 -38.5t-44 -108.5q0 -63 44 -114.5t107 -92.5l127 -86q63 -45 107.5 -118.5 t44.5 -170.5q0 -147 -92.5 -222t-239.5 -75q-162 1 -299 64z" />
<glyph unicode="t" horiz-adv-x="636" d="M45 973v131h127v366l174 43v-409h254v-131h-254v-668q0 -98 26.5 -140t92.5 -42q78 0 147 37l31 -144q-86 -43 -211 -43q-145 0 -202.5 71t-57.5 239v690h-127z" />
<glyph unicode="u" horiz-adv-x="1083" d="M162 295v809h174v-778q0 -111 31.5 -154t101.5 -43q123 0 276 143v832h175v-1104h-156l-12 125q-100 -78 -179 -115t-170 -37q-117 0 -179 72t-62 250z" />
<glyph unicode="v" horiz-adv-x="917" d="M16 1104h197l256 -868l244 868h188l-371 -1104h-139z" />
<glyph unicode="w" horiz-adv-x="1349" d="M39 1104h178l168 -825l240 825h118l242 -823l158 823h168l-254 -1104h-119l-258 856l-260 -856h-119z" />
<glyph unicode="x" horiz-adv-x="876" d="M39 1104h201l235 -426l178 426h187l-265 -555l-28 -2l303 -547h-201l-235 424l-176 -426h-187l262 555h29z" />
<glyph unicode="y" horiz-adv-x="890" d="M14 1104h191l252 -940l248 940h180l-353 -1198q-59 -203 -154 -302.5t-263 -166.5l-64 141q127 57 200 136t116 218l32 107l-65 4z" />
<glyph unicode="z" horiz-adv-x="788" d="M63 109l463 860h-436v135h627l12 -109l-465 -858h473v-137h-667z" />
<glyph unicode="{" horiz-adv-x="591" d="M49 727v102q182 25 182 295v344q0 160 78 236t180 84l19 -117q-129 -6 -129 -227v-322q0 -256 -150 -340q66 -31 108 -126t42 -220v-348q0 -106 30.5 -159.5t106.5 -84.5l-27 -116q-66 23 -104.5 43t-78.5 60t-57.5 107.5t-17.5 167.5v281q0 168 -44 247t-138 93z" />
<glyph unicode="|" horiz-adv-x="520" d="M178 -219v1882h166v-1882h-166z" />
<glyph unicode="}" horiz-adv-x="591" d="M76 1673l30 117q66 -23 103 -42t77 -59t57 -108t17 -168v-280q0 -168 44.5 -248t136.5 -94v-103q-80 -12 -130.5 -85t-50.5 -210v-342q0 -160 -77.5 -236.5t-178.5 -82.5l-18 116q131 6 131 226v321q0 256 148 340q-66 33 -107 127t-41 221v347q0 106 -32.5 159 t-108.5 84z" />
<glyph unicode="~" horiz-adv-x="894" d="M53 641q119 104 238 104q82 0 178 -60t145 -60q76 0 179 82l51 -121q-111 -115 -244 -115q-72 0 -164 60.5t-160 60.5q-98 0 -178 -72z" />
<glyph unicode="&#xa1;" horiz-adv-x="446" d="M137 1007.5q0 51.5 35 86t84 34.5q47 0 81 -34.5t34 -86t-34 -86t-81 -34.5q-51 0 -85 34.5t-34 86zM145 -410l15 1063h164l16 -1063h-195z" />
<glyph unicode="&#xa2;" horiz-adv-x="839" d="M106 555q0 240 88.5 386t245.5 183v246h152v-237q90 -8 196 -62l-43 -149q-102 68 -202 67q-119 0 -185.5 -107.5t-66.5 -312.5q0 -209 67.5 -330.5t190.5 -121.5q102 0 203 65l39 -145q-100 -53 -199 -64v-247h-152v256q-162 33 -248 184t-86 389z" />
<glyph unicode="&#xa3;" horiz-adv-x="915" d="M82 111q96 76 127 169t31 261v209h-156v137h156v221q0 182 97 304t265 122q133 0 270 -57l-45 -138q-98 49 -202 50q-106 0 -161.5 -77t-55.5 -208v-217h231v-137h-231v-218q0 -160 -17.5 -249.5t-71.5 -141.5h545v-141h-768z" />
<glyph unicode="&#xa4;" horiz-adv-x="1036" d="M90 559v131h121v58q0 76 2 114h-123v135h137q39 248 160 395.5t336 147.5q123 0 250 -59l-47 -148q-100 59 -195 60q-260 0 -317 -396h391v-135h-404q-2 -33 -2 -102q0 -47 2 -70h404v-131h-395q25 -209 101.5 -325.5t209.5 -116.5q98 0 219 63l45 -143 q-154 -66 -278 -66q-217 0 -337 158t-149 430h-131z" />
<glyph unicode="&#xa5;" horiz-adv-x="1013" d="M39 1513h184l281 -763l282 763h189l-277 -632h220v-133h-277l-66 -150h343v-133h-330v-467h-176v467h-330v133h348l-63 150h-285v133h221l10 -13z" />
<glyph unicode="&#xa6;" horiz-adv-x="520" d="M178 -219v823h166v-823h-166zM178 895v770h166v-770h-166z" />
<glyph unicode="&#xa7;" horiz-adv-x="958" d="M109 692q0 174 184 293q-104 129 -105 262q0 131 90.5 208t249.5 77q139 0 256 -45l-45 -123q-72 33 -200 33q-88 0 -140.5 -38t-52.5 -107.5t54.5 -142.5t129.5 -137l153 -134q77 -70 131 -159t54 -183q0 -172 -186 -293q92 -117 92 -242q0 -137 -94 -208.5t-248 -71.5 q-172 0 -278 51l47 127q82 -45 217 -45q188 0 188 143q0 70 -51 140.5t-125 133.5l-146 130q-73 67 -124 153t-51 178zM274 698q0 -55 34 -112.5t64.5 -89t110.5 -101.5l105 -92q119 92 119 195q0 43 -17.5 84t-55.5 83t-71 72.5t-91 78.5t-89 77q-109 -99 -109 -195z" />
<glyph unicode="&#xa8;" horiz-adv-x="614" d="M-2 1434q0 51 30.5 81.5t80.5 30.5q43 0 72.5 -31.5t29.5 -80.5q0 -47 -29.5 -78t-72.5 -31q-49 0 -80 30t-31 79zM397 1433.5q0 49.5 29 81t74 31.5q47 0 78.5 -31.5t31.5 -81t-30.5 -79t-79.5 -29.5q-43 0 -73 29.5t-30 79z" />
<glyph unicode="&#xa9;" horiz-adv-x="2080" d="M139 614q0 297 110.5 542t318.5 390.5t472.5 145.5t472 -145.5t318.5 -390.5t111 -542q0 -299 -111 -543.5t-318.5 -390t-472 -145.5t-471.5 143.5t-318.5 388t-111.5 547.5zM293 612q0 -399 208 -666.5t537.5 -267.5t538.5 269.5t209 664.5q0 258 -92 470t-265.5 337 t-390.5 125t-389 -126t-264 -338t-92 -468zM545 629q0 281 143 443.5t348 162.5q170 0 334 -88l-49 -143q-86 47 -141.5 66.5t-120.5 19.5q-53 0 -108.5 -24t-109 -73t-86 -144t-32.5 -220q0 -135 35 -240.5t87 -161t104 -83t98 -27.5q80 0 139 18.5t145 63.5l49 -140 q-152 -88 -344 -88q-215 0 -353 174.5t-138 483.5z" />
<glyph unicode="&#xaa;" horiz-adv-x="665" d="M55 936q0 139 93.5 195.5t271.5 60.5v86q0 147 -105 147q-78 0 -198 -63l-31 117q156 63 258 63q117 0 169 -73.5t52 -184.5v-356q0 -51 10 -189h-129l-10 88q-4 -4 -32.5 -28.5t-39.5 -31.5l-35 -23q-24 -15 -43.5 -20t-41.5 -5q-90 0 -139.5 61.5t-49.5 155.5zM63 465 v137h521v-137h-521zM193 946q0 -109 77 -108q63 0 150 90v172q-227 -4 -227 -154z" />
<glyph unicode="&#xab;" horiz-adv-x="948" d="M90 557l287 463l125 -39l-217 -424l219 -428l-127 -33zM453 557l262 408l121 -39l-187 -367l189 -379l-125 -37z" />
<glyph unicode="&#xac;" horiz-adv-x="1087" d="M78 616v144h926v-551h-144l-2 407h-780z" />
<glyph unicode="&#xad;" horiz-adv-x="755" d="M106 596v145h541v-145h-541z" />
<glyph unicode="&#xae;" horiz-adv-x="2080" d="M139 614q0 297 110.5 542t318.5 390.5t472.5 145.5t472 -145.5t318.5 -390.5t111 -542q0 -299 -111 -543.5t-318.5 -390t-472 -145.5t-471.5 143.5t-318.5 388t-111.5 547.5zM293 612q0 -399 208 -666.5t537.5 -267.5t538.5 269.5t209 664.5q0 258 -92 470t-265.5 337 t-390.5 125t-389 -126t-264 -338t-92 -468zM721 -2v1216h256q219 0 312 -105t93 -243q0 -227 -204 -319l247 -549h-174l-209 510q-84 -14 -165 -8v-502h-156zM877 618q346 -2 346 240q0 106 -61.5 166.5t-223.5 60.5h-61v-467z" />
<glyph unicode="&#xaf;" horiz-adv-x="565" d="M4 1294v123h559v-123h-559z" />
<glyph unicode="&#xb0;" horiz-adv-x="776" d="M96 1348q0 135 84 229t203 94q121 0 205 -94t84 -229q0 -137 -84 -231.5t-205 -94.5q-123 0 -205 93.5t-82 232.5zM225 1348q0 -88 46 -148.5t112 -60.5t113 60.5t47 148.5t-47 147t-113 59t-112 -60t-46 -146z" />
<glyph unicode="&#xb1;" horiz-adv-x="999" d="M98 0v147h801v-147h-801zM98 641v143h322v404h160v-404h319v-143h-319v-395h-160v395h-322z" />
<glyph unicode="&#xb2;" horiz-adv-x="583" d="M45 756l150 178q47 57 112.5 174t65.5 195q0 113 -103 112q-86 0 -178 -53l-35 115q121 63 236 63q113 0 172 -57.5t59 -167.5q0 -205 -291 -527h318v-112h-496z" />
<glyph unicode="&#xb3;" horiz-adv-x="524" d="M31 680l30 121q76 -29 134 -29q70 0 112.5 38t42.5 110q0 150 -174 149h-70l-2 102h46q68 0 117.5 37t49.5 107q0 47 -27.5 73.5t-74.5 26.5q-61 0 -133 -39l-39 109q109 51 205 51q100 0 163.5 -50t63.5 -147q0 -127 -108 -196q135 -51 135 -217q0 -133 -81 -202 t-222 -69q-84 0 -168 25z" />
<glyph unicode="&#xb4;" horiz-adv-x="249" d="M-35 1294l191 332l137 -78l-225 -305z" />
<glyph unicode="&#xb5;" d="M152 -559v1663h176v-799q39 -84 93 -136t114 -52q80 0 138 88t58 227v672h174v-770q0 -154 21 -334h-156q-6 59 -10 127q-82 -156 -213 -156q-129 0 -219 113v-643h-176z" />
<glyph unicode="&#x3bc;" d="M152 -559v1663h176v-799q39 -84 93 -136t114 -52q80 0 138 88t58 227v672h174v-770q0 -154 21 -334h-156q-6 59 -10 127q-82 -156 -213 -156q-129 0 -219 113v-643h-176z" />
<glyph unicode="&#xb6;" horiz-adv-x="1105" d="M27 1239q0 227 137 363.5t428 136.5h358v-1901h-168v1757h-176q-188 0 -296.5 -85t-108.5 -261q0 -92 39 -159.5t104.5 -102.5t134 -50t144.5 -15v-1084h-164v946q-211 27 -321.5 156t-110.5 299z" />
<glyph unicode="&#xb7;" horiz-adv-x="491" d="M143 710.5q0 51.5 35 86t84 34.5q47 0 81 -34.5t34 -86t-34 -86t-81 -34.5q-51 0 -85 34.5t-34 86z" />
<glyph unicode="&#xb8;" horiz-adv-x="505" d="M106 -508l25 94q59 -18 107 -18q131 0 131 102q0 53 -43 79t-133 32l26 223h105l-21 -145q190 -39 191 -197q0 -100 -71 -145t-175 -45q-70 0 -142 20z" />
<glyph unicode="&#xb9;" horiz-adv-x="507" d="M27 1360l254 172h116v-860h-145l2 690l-186 -107z" />
<glyph unicode="&#xba;" horiz-adv-x="763" d="M61 1133q0 43 8.5 91t30 106.5t55 103.5t91 75.5t131.5 30.5q94 0 159.5 -42t94 -110.5t39 -127t10.5 -119.5q0 -66 -14.5 -132.5t-46 -134t-98 -109.5t-157 -42t-154 41t-94 108.5t-43 131t-12.5 129.5zM86 465v137h602v-137h-602zM221 1137q0 -45 5 -88t19.5 -91.5 t46.5 -78t79 -29.5t78.5 29.5t47 78t21.5 91.5t6 88q0 41 -6 82t-20.5 88t-47 76.5t-77.5 29.5q-59 0 -96 -52t-46.5 -108.5t-9.5 -115.5z" />
<glyph unicode="&#xbb;" horiz-adv-x="950" d="M111 934l125 37l260 -414l-260 -407l-123 38l186 367zM446 133l220 424l-220 428l127 35l287 -463l-289 -461z" />
<glyph unicode="&#xbc;" horiz-adv-x="1273" d="M12 1360l254 172h117v-860h-145l2 690l-187 -107zM150 154l909 1353l106 -104l-905 -1350zM700 287l220 585h141l-211 -567h186l29 277h92l2 -277h92v-119h-92v-186h-143v186h-281z" />
<glyph unicode="&#xbd;" horiz-adv-x="1349" d="M12 1360l254 172h117v-860h-145l2 690l-187 -107zM133 154l909 1353l107 -104l-905 -1350zM819 82q201 233 264 346q66 117 66 199q0 113 -105 112q-86 0 -178 -53l-32 117q121 61 233 61q233 0 233 -225q0 -209 -288 -524h313v-115h-496z" />
<glyph unicode="&#xbe;" horiz-adv-x="1312" d="M31 680l30 121q76 -29 134 -29q70 0 112.5 38t42.5 110q0 150 -174 149h-70l-2 102h46q68 0 117.5 37t49.5 107q0 47 -27.5 73.5t-74.5 26.5q-61 0 -133 -39l-39 109q109 51 205 51q100 0 163.5 -50t63.5 -147q0 -127 -108 -196q135 -51 135 -217q0 -133 -81 -202 t-222 -69q-84 0 -168 25zM184 154l910 1353l106 -104l-905 -1350zM752 287l217 585h143l-211 -567h186l27 277h94v-277h95v-119h-95v-186h-141v186h-281z" />
<glyph unicode="&#xbf;" horiz-adv-x="804" d="M106 -104q0 94 40 180t88.5 142t88 144.5t39.5 188.5v111h175v-121q0 -98 -26 -178t-62.5 -134.5t-73.5 -102.5t-62.5 -103.5t-25.5 -116.5q0 -82 44 -125t118 -43q100 0 223 86l59 -125q-158 -104 -317.5 -104.5t-233.5 86t-74 215.5zM332 1012q0 51 32.5 86t82 35 t83 -35t33.5 -86t-33.5 -86t-83 -35t-82 35t-32.5 86z" />
<glyph unicode="&#xc0;" d="M-8 0l432 1513h199l450 -1513h-192l-129 440h-459l-125 -440h-176zM295 1939l156 84l192 -317l-115 -55zM330 582h383l-195 772z" />
<glyph unicode="&#xc1;" d="M-8 0l432 1513h199l450 -1513h-192l-129 440h-459l-125 -440h-176zM330 582h383l-195 772zM403 1696l189 329l139 -79l-225 -301z" />
<glyph unicode="&#xc2;" d="M-8 0l432 1513h199l450 -1513h-192l-129 440h-459l-125 -440h-176zM240 1712l280 258l287 -248l-82 -82l-203 164l-198 -164zM330 582h383l-195 772z" />
<glyph unicode="&#xc3;" d="M-8 0l432 1513h199l450 -1513h-192l-129 440h-459l-125 -440h-176zM231 1739q106 100 199 100q51 0 111.5 -29.5t97.5 -29.5q49 0 121 57l67 -80q-92 -102 -194 -102q-53 0 -113.5 30.5t-95.5 30.5q-49 0 -127 -61zM330 582h383l-195 772z" />
<glyph unicode="&#xc4;" d="M-8 0l432 1513h199l450 -1513h-192l-129 440h-459l-125 -440h-176zM201 1767.5q0 49.5 32.5 82t81.5 32.5q47 0 78 -32.5t31 -82t-32 -80t-77 -30.5q-51 0 -82.5 30.5t-31.5 80zM330 582h383l-195 772zM610 1767q0 49 32 82t77 33q51 0 85 -32.5t34 -82t-34 -80 t-85 -30.5q-43 0 -76 31.5t-33 78.5z" />
<glyph unicode="&#xc5;" d="M-8 0l411 1444q-90 63 -90 198q0 98 59.5 166t147.5 68q92 0 151.5 -68.5t59.5 -165.5q0 -125 -90 -194l432 -1448h-192l-129 440h-459l-125 -440h-176zM330 582h383l-195 772zM424 1642q0 -123 86 -129h10q47 0 72.5 37t25.5 92.5t-25.5 93.5t-72.5 38t-71.5 -38.5 t-24.5 -93.5z" />
<glyph unicode="&#xc6;" horiz-adv-x="1484" d="M-59 0l704 1513h725v-145h-526l80 -498h426v-143h-408l94 -582h398v-145h-547l-70 473h-469l-201 -473h-206zM414 610h387l-107 733z" />
<glyph unicode="&#xc7;" horiz-adv-x="948" d="M86 745q0 795 567 795q141 0 279 -49l-31 -148q-27 14 -100.5 32t-145.5 18q-385 0 -385 -627q0 -643 375 -643q135 0 268 59l21 -149q-119 -51 -272 -58l-17 -116q190 -39 191 -197q0 -100 -71 -145t-175 -45q-70 0 -141 20l24 94q59 -18 107 -18q131 0 131 102 q0 53 -43 79t-133 32l22 201q-471 52 -471 763z" />
<glyph unicode="&#xc8;" horiz-adv-x="1019" d="M188 0v1513h734v-145h-560v-508h504v-143h-504v-572h596v-145h-770zM328 1939l155 84l193 -317l-115 -55z" />
<glyph unicode="&#xc9;" horiz-adv-x="1019" d="M188 0v1513h734v-145h-560v-508h504v-143h-504v-572h596v-145h-770zM438 1696l189 329l139 -79l-225 -301z" />
<glyph unicode="&#xca;" horiz-adv-x="1019" d="M188 0v1513h734v-145h-560v-508h504v-143h-504v-572h596v-145h-770zM274 1712l281 258l287 -248l-82 -82l-203 164l-199 -164z" />
<glyph unicode="&#xcb;" horiz-adv-x="1019" d="M188 0v1513h734v-145h-560v-508h504v-143h-504v-572h596v-145h-770zM233 1767.5q0 49.5 33 82t82 32.5q47 0 78 -32.5t31 -82t-32 -80t-77 -30.5q-51 0 -83 30.5t-32 80zM643 1767q0 49 32 82t77 33q51 0 84.5 -32.5t33.5 -82t-33.5 -80t-84.5 -30.5q-43 0 -76 31.5 t-33 78.5z" />
<glyph unicode="&#xcc;" horiz-adv-x="552" d="M51 1939l156 84l192 -317l-114 -55zM190 0v1513h172v-1513h-172z" />
<glyph unicode="&#xcd;" horiz-adv-x="552" d="M162 1696l188 329l139 -79l-225 -301zM190 0v1513h172v-1513h-172z" />
<glyph unicode="&#xce;" horiz-adv-x="552" d="M-2 1712l281 258l286 -248l-82 -82l-202 164l-199 -164zM190 0v1513h172v-1513h-172z" />
<glyph unicode="&#xcf;" horiz-adv-x="552" d="M-43 1767.5q0 49.5 33 82t82 32.5q47 0 77.5 -32.5t30.5 -82t-31.5 -80t-76.5 -30.5q-51 0 -83 30.5t-32 80zM190 0v1513h172v-1513h-172zM367 1767q0 49 31.5 82t76.5 33q51 0 85 -32.5t34 -82t-34 -80t-85 -30.5q-43 0 -75.5 31.5t-32.5 78.5z" />
<glyph unicode="&#xd0;" horiz-adv-x="1245" d="M188 0v1513h357q608 0 608 -745q0 -131 -16.5 -238.5t-58.5 -209t-109.5 -170t-177 -109.5t-254.5 -41h-349zM285 1704v123h559v-123h-559zM362 145h185q104 0 181 33t123 86t73.5 135t37 166t9.5 195q0 137 -19.5 239.5t-66.5 189.5t-138.5 133t-222.5 46h-162v-1223z " />
<glyph unicode="&#xd1;" horiz-adv-x="1363" d="M188 0v1513h136l686 -1142v1142h166v-1513h-129l-691 1159v-1159h-168zM403 1739q106 100 199 100q51 0 111.5 -29.5t97.5 -29.5q49 0 121 57l67 -80q-92 -102 -194 -102q-53 0 -113.5 30.5t-95.5 30.5q-49 0 -127 -61z" />
<glyph unicode="&#xd2;" horiz-adv-x="1277" d="M90 727q0 162 27.5 299t90 257t176.5 188.5t269 68.5q150 0 257.5 -61.5t166 -171t85 -238.5t26.5 -283q0 -813 -565 -813q-533 0 -533 754zM272 735q0 -616 359 -616q373 0 373 659q0 616 -361 617q-371 -1 -371 -660zM422 1939l156 84l192 -317l-115 -55z" />
<glyph unicode="&#xd3;" horiz-adv-x="1277" d="M90 727q0 162 27.5 299t90 257t176.5 188.5t269 68.5q150 0 257.5 -61.5t166 -171t85 -238.5t26.5 -283q0 -813 -565 -813q-533 0 -533 754zM272 735q0 -616 359 -616q373 0 373 659q0 616 -361 617q-371 -1 -371 -660zM532 1696l189 329l139 -79l-225 -301z" />
<glyph unicode="&#xd4;" horiz-adv-x="1277" d="M90 727q0 162 27.5 299t90 257t176.5 188.5t269 68.5q150 0 257.5 -61.5t166 -171t85 -238.5t26.5 -283q0 -813 -565 -813q-533 0 -533 754zM272 735q0 -616 359 -616q373 0 373 659q0 616 -361 617q-371 -1 -371 -660zM369 1712l280 258l287 -248l-82 -82l-203 164 l-198 -164z" />
<glyph unicode="&#xd5;" horiz-adv-x="1277" d="M90 727q0 162 27.5 299t90 257t176.5 188.5t269 68.5q150 0 257.5 -61.5t166 -171t85 -238.5t26.5 -283q0 -813 -565 -813q-533 0 -533 754zM272 735q0 -616 359 -616q373 0 373 659q0 616 -361 617q-371 -1 -371 -660zM358 1739q106 100 199 100q51 0 111.5 -29.5 t97.5 -29.5q49 0 121 57l67 -80q-92 -102 -194 -102q-53 0 -113.5 30.5t-95.5 30.5q-49 0 -127 -61z" />
<glyph unicode="&#xd6;" horiz-adv-x="1277" d="M90 727q0 162 27.5 299t90 257t176.5 188.5t269 68.5q150 0 257.5 -61.5t166 -171t85 -238.5t26.5 -283q0 -813 -565 -813q-533 0 -533 754zM272 735q0 -616 359 -616q373 0 373 659q0 616 -361 617q-371 -1 -371 -660zM328 1767.5q0 49.5 32.5 82t81.5 32.5 q47 0 78 -32.5t31 -82t-32 -80t-77 -30.5q-51 0 -82.5 30.5t-31.5 80zM737 1767q0 49 32 82t77 33q51 0 85 -32.5t34 -82t-34 -80t-85 -30.5q-43 0 -76 31.5t-33 78.5z" />
<glyph unicode="&#xd7;" horiz-adv-x="997" d="M125 930l104 110l271 -333l264 329l106 -110l-266 -324l268 -328l-106 -108l-266 328l-264 -326l-107 106l264 326z" />
<glyph unicode="&#xd8;" horiz-adv-x="1284" d="M18 76l148 188q-76 176 -76 463q0 162 27.5 299t90 257t176.5 188.5t269 68.5q250 0 383 -176l150 188l104 -112l-174 -217q72 -178 72 -437q0 -813 -565 -813q-240 0 -371 152l-125 -162zM272 735q0 -180 29 -309l625 791q-90 178 -283 178q-371 -1 -371 -660zM362 268 q90 -150 269 -149q373 0 373 659q0 150 -25 279z" />
<glyph unicode="&#xd9;" horiz-adv-x="1286" d="M178 465v1048h176v-1011q0 -184 64.5 -278.5t226.5 -94.5t225.5 99.5t63.5 277.5v1007h174v-1044q0 -221 -114.5 -358.5t-360.5 -137.5q-244 0 -349.5 135.5t-105.5 356.5zM424 1939l156 84l192 -317l-115 -55z" />
<glyph unicode="&#xda;" horiz-adv-x="1286" d="M178 465v1048h176v-1011q0 -184 64.5 -278.5t226.5 -94.5t225.5 99.5t63.5 277.5v1007h174v-1044q0 -221 -114.5 -358.5t-360.5 -137.5q-244 0 -349.5 135.5t-105.5 356.5zM535 1696l188 329l139 -79l-225 -301z" />
<glyph unicode="&#xdb;" horiz-adv-x="1286" d="M178 465v1048h176v-1011q0 -184 64.5 -278.5t226.5 -94.5t225.5 99.5t63.5 277.5v1007h174v-1044q0 -221 -114.5 -358.5t-360.5 -137.5q-244 0 -349.5 135.5t-105.5 356.5zM371 1712l280 258l287 -248l-82 -82l-203 164l-198 -164z" />
<glyph unicode="&#xdc;" horiz-adv-x="1286" d="M178 465v1048h176v-1011q0 -184 64.5 -278.5t226.5 -94.5t225.5 99.5t63.5 277.5v1007h174v-1044q0 -221 -114.5 -358.5t-360.5 -137.5q-244 0 -349.5 135.5t-105.5 356.5zM330 1767.5q0 49.5 32.5 82t81.5 32.5q47 0 78 -32.5t31 -82t-32 -80t-77 -30.5 q-51 0 -82.5 30.5t-31.5 80zM739 1767q0 49 32 82t77 33q51 0 85 -32.5t34 -82t-34 -80t-85 -30.5q-43 0 -76 31.5t-33 78.5z" />
<glyph unicode="&#xdd;" horiz-adv-x="974" d="M-33 1513h199l326 -837l331 837h183l-431 -1017v-496h-174v492zM379 1696l188 329l140 -79l-226 -301z" />
<glyph unicode="&#xde;" horiz-adv-x="1058" d="M211 0v1513h174v-280h131q115 0 204 -34t140 -84t83 -116.5t43 -124t11 -114.5q0 -68 -12 -131.5t-44 -127t-82 -109.5t-132 -74.5t-186 -28.5q-92 0 -156 16v-305h-174zM385 451q82 -18 150 -19q274 0 274 328q0 39 -4 73.5t-23.5 84t-51.5 84t-93.5 60t-142.5 25.5 h-109v-636z" />
<glyph unicode="&#xdf;" horiz-adv-x="1009" d="M164 0v1198q0 219 103.5 351t295.5 132q164 0 256 -88t92 -223q0 -84 -30.5 -164t-66.5 -132t-66.5 -119.5t-30.5 -129.5q0 -57 26.5 -108t63.5 -94l75 -91q38 -47 64.5 -115.5t26.5 -150.5q0 -86 -30 -148.5t-78 -93t-96 -43t-97 -12.5q-115 0 -246 76l47 148 q123 -80 193 -80q63 0 97 40t34 111q0 70 -40 137.5t-89.5 116.5t-89 127t-39.5 166q0 80 30.5 159t66.5 131t66.5 120.5t30.5 130.5q0 80 -42 135t-128 55q-111 0 -168 -94t-57 -244v-1204h-174z" />
<glyph unicode="&#xe0;" horiz-adv-x="933" d="M90 272q0 117 70.5 190t177 100.5t258.5 31.5v209q0 106 -37 149t-113 43q-109 0 -266 -77l-39 133q209 80 330 79q160 0 228.5 -82.5t68.5 -240.5v-496q0 -96 20 -311h-145l-18 106q-4 -2 -36 -25.5t-43 -30.5t-43 -25.5t-52.5 -25.5t-52 -14.5t-62.5 -7.5 q-119 0 -182.5 84t-63.5 211zM236 1540l155 84l193 -319l-115 -56zM252 291q0 -84 39 -134.5t106 -50.5q66 0 201 103v276q-55 -2 -96 -5t-91.5 -15t-82 -31.5t-54 -56.5t-22.5 -86z" />
<glyph unicode="&#xe1;" horiz-adv-x="933" d="M90 272q0 117 70.5 190t177 100.5t258.5 31.5v209q0 106 -37 149t-113 43q-109 0 -266 -77l-39 133q209 80 330 79q160 0 228.5 -82.5t68.5 -240.5v-496q0 -96 20 -311h-145l-18 106q-4 -2 -36 -25.5t-43 -30.5t-43 -25.5t-52.5 -25.5t-52 -14.5t-62.5 -7.5 q-119 0 -182.5 84t-63.5 211zM252 291q0 -84 39 -134.5t106 -50.5q66 0 201 103v276q-55 -2 -96 -5t-91.5 -15t-82 -31.5t-54 -56.5t-22.5 -86zM383 1294l190 332l138 -78l-226 -305z" />
<glyph unicode="&#xe2;" horiz-adv-x="933" d="M90 272q0 117 70.5 190t177 100.5t258.5 31.5v209q0 106 -37 149t-113 43q-109 0 -266 -77l-39 133q209 80 330 79q160 0 228.5 -82.5t68.5 -240.5v-496q0 -96 20 -311h-145l-18 106q-4 -2 -36 -25.5t-43 -30.5t-43 -25.5t-52.5 -25.5t-52 -14.5t-62.5 -7.5 q-119 0 -182.5 84t-63.5 211zM197 1311l282 260l285 -248l-82 -82l-203 164l-198 -164zM252 291q0 -84 39 -134.5t106 -50.5q66 0 201 103v276q-55 -2 -96 -5t-91.5 -15t-82 -31.5t-54 -56.5t-22.5 -86z" />
<glyph unicode="&#xe3;" horiz-adv-x="933" d="M90 272q0 117 70.5 190t177 100.5t258.5 31.5v209q0 106 -37 149t-113 43q-109 0 -266 -77l-39 133q209 80 330 79q160 0 228.5 -82.5t68.5 -240.5v-496q0 -96 20 -311h-145l-18 106q-4 -2 -36 -25.5t-43 -30.5t-43 -25.5t-52.5 -25.5t-52 -14.5t-62.5 -7.5 q-119 0 -182.5 84t-63.5 211zM170 1362q100 106 197 106q55 0 113.5 -30.5t90.5 -30.5q53 0 125 63l70 -77q-90 -111 -195 -111q-59 0 -116.5 32t-89.5 32q-10 0 -19.5 -1.5t-20 -6.5t-16.5 -7t-19.5 -11t-16.5 -12t-19 -15.5t-21 -14.5zM252 291q0 -84 39 -134.5t106 -50.5 q66 0 201 103v276q-55 -2 -96 -5t-91.5 -15t-82 -31.5t-54 -56.5t-22.5 -86z" />
<glyph unicode="&#xe4;" horiz-adv-x="933" d="M90 272q0 117 70.5 190t177 100.5t258.5 31.5v209q0 106 -37 149t-113 43q-109 0 -266 -77l-39 133q209 80 330 79q160 0 228.5 -82.5t68.5 -240.5v-496q0 -96 20 -311h-145l-18 106q-4 -2 -36 -25.5t-43 -30.5t-43 -25.5t-52.5 -25.5t-52 -14.5t-62.5 -7.5 q-119 0 -182.5 84t-63.5 211zM166 1434q0 51 30.5 81.5t79.5 30.5q43 0 73 -31.5t30 -80.5q0 -47 -30 -78t-73 -31q-49 0 -79.5 30t-30.5 79zM252 291q0 -84 39 -134.5t106 -50.5q66 0 201 103v276q-55 -2 -96 -5t-91.5 -15t-82 -31.5t-54 -56.5t-22.5 -86zM565 1433.5 q0 49.5 29 81t74 31.5q47 0 78.5 -31.5t31.5 -81t-30.5 -79t-79.5 -29.5q-43 0 -73 29.5t-30 79z" />
<glyph unicode="&#xe5;" horiz-adv-x="933" d="M90 272q0 117 70.5 190t177 100.5t258.5 31.5v209q0 106 -37 149t-113 43q-109 0 -266 -77l-39 133q209 80 330 79q160 0 228.5 -82.5t68.5 -240.5v-496q0 -96 20 -311h-145l-18 106q-4 -2 -36 -25.5t-43 -30.5t-43 -25.5t-52.5 -25.5t-52 -14.5t-62.5 -7.5 q-119 0 -182.5 84t-63.5 211zM252 291q0 -84 39 -134.5t106 -50.5q66 0 201 103v276q-55 -2 -96 -5t-91.5 -15t-82 -31.5t-54 -56.5t-22.5 -86zM268 1448q0 98 59.5 166.5t147.5 68.5q92 0 151.5 -68.5t59.5 -166.5t-59.5 -167t-151.5 -69q-90 0 -148.5 69t-58.5 167z M379 1448q0 -55 25.5 -92t70.5 -37t71.5 39t26.5 90q0 55 -26.5 93t-71.5 38t-70.5 -38t-25.5 -93z" />
<glyph unicode="&#xe6;" horiz-adv-x="1370" d="M84 287q0 180 133 270t365 96v127q0 215 -138 215q-104 0 -266 -77l-39 133q209 80 326 79q170 0 221 -188q119 193 264 193q166 0 247 -135.5t81 -352.5q0 -49 -6 -96h-541q12 -442 248 -442q109 0 235 96l43 -137q-139 -96 -303 -97q-174 0 -270 150 q-182 -143 -332 -144q-123 0 -195.5 86.5t-72.5 223.5zM244 307q0 -86 45 -143.5t114 -57.5q98 0 234 109q-51 131 -57 330q-158 -4 -247 -62.5t-89 -175.5zM723 666h393q6 340 -186 340q-90 0 -143.5 -98.5t-63.5 -241.5z" />
<glyph unicode="&#xe7;" horiz-adv-x="827" d="M106 547q0 289 109 433t311 144q145 0 246 -49l-37 -145q-94 55 -200 55q-248 0 -248 -418q0 -215 65.5 -330.5t184.5 -115.5q94 0 202 55l37 -135q-82 -45 -225 -59l-16 -123q190 -39 190 -197q0 -100 -70.5 -145t-175.5 -45q-70 0 -141 20l24 94q59 -18 107 -18 q131 0 131 102q0 53 -43 79t-133 32l22 203q-340 41 -340 563z" />
<glyph unicode="&#xe8;" horiz-adv-x="948" d="M111 543q0 588 399 587q350 0 350 -464q0 -68 -8 -115h-584q2 -229 62.5 -333.5t201.5 -104.5q111 0 265 80l41 -134q-168 -86 -320 -86q-217 0 -312 149t-95 421zM268 1540l156 84l192 -319l-114 -56zM270 666h426q2 170 -41 255t-153 85q-207 0 -232 -340z" />
<glyph unicode="&#xe9;" horiz-adv-x="948" d="M111 543q0 588 399 587q350 0 350 -464q0 -68 -8 -115h-584q2 -229 62.5 -333.5t201.5 -104.5q111 0 265 80l41 -134q-168 -86 -320 -86q-217 0 -312 149t-95 421zM270 666h426q2 170 -41 255t-153 85q-207 0 -232 -340zM418 1294l190 332l137 -78l-225 -305z" />
<glyph unicode="&#xea;" horiz-adv-x="948" d="M111 543q0 588 399 587q350 0 350 -464q0 -68 -8 -115h-584q2 -229 62.5 -333.5t201.5 -104.5q111 0 265 80l41 -134q-168 -86 -320 -86q-217 0 -312 149t-95 421zM229 1311l283 260l285 -248l-82 -82l-203 164l-199 -164zM270 666h426q2 170 -41 255t-153 85 q-207 0 -232 -340z" />
<glyph unicode="&#xeb;" horiz-adv-x="948" d="M111 543q0 588 399 587q350 0 350 -464q0 -68 -8 -115h-584q2 -229 62.5 -333.5t201.5 -104.5q111 0 265 80l41 -134q-168 -86 -320 -86q-217 0 -312 149t-95 421zM199 1434q0 51 30.5 81.5t79.5 30.5q43 0 73 -31.5t30 -80.5q0 -47 -30 -78t-73 -31q-49 0 -79.5 30 t-30.5 79zM270 666h426q2 170 -41 255t-153 85q-207 0 -232 -340zM598 1433.5q0 49.5 28.5 81t73.5 31.5q47 0 79 -31.5t32 -81t-30.5 -79t-80.5 -29.5q-43 0 -72.5 29.5t-29.5 79z" />
<glyph unicode="&#xec;" horiz-adv-x="495" d="M6 1540l156 84l192 -319l-114 -56zM160 0v1104h176v-1104h-176z" />
<glyph unicode="&#xed;" horiz-adv-x="495" d="M156 1294l190 332l137 -78l-225 -305zM160 0v1104h176v-1104h-176z" />
<glyph unicode="&#xee;" horiz-adv-x="495" d="M-33 1311l283 260l285 -248l-82 -82l-203 164l-199 -164zM160 0v1104h176v-1104h-176z" />
<glyph unicode="&#xef;" horiz-adv-x="495" d="M-63 1434q0 51 30.5 81.5t79.5 30.5q43 0 73 -31.5t30 -80.5q0 -47 -30 -78t-73 -31q-49 0 -79.5 30t-30.5 79zM160 0v1104h176v-1104h-176zM336 1433.5q0 49.5 28.5 81t73.5 31.5q47 0 79 -31.5t32 -81t-31 -79t-80 -29.5q-43 0 -72.5 29.5t-29.5 79z" />
<glyph unicode="&#xf0;" horiz-adv-x="1056" d="M113 440q0 127 36.5 227.5t100 159t144.5 87t170 21.5t175 -46q-35 197 -114 336l-185 -166l-71 96l190 168q-106 131 -264 205l67 135q193 -82 320 -231l178 157l68 -92l-174 -158q186 -283 186 -708q0 -657 -416 -658q-188 0 -299.5 127t-111.5 340zM299 463 q0 -150 60.5 -246t170.5 -96q229 0 230 491q0 74 -6 148q-119 49 -220.5 41t-168 -97t-66.5 -241z" />
<glyph unicode="&#xf1;" horiz-adv-x="1089" d="M166 0v1104h156l12 -127q98 78 178 115.5t172 37.5q117 0 178.5 -71.5t61.5 -247.5v-811h-174v778q0 111 -32 155t-102 44q-119 0 -276 -146v-831h-174zM256 1362q100 106 197 106q55 0 113.5 -30.5t90.5 -30.5q53 0 125 63l70 -77q-90 -111 -195 -111q-59 0 -116.5 32 t-89.5 32q-10 0 -19.5 -1.5t-20 -6.5t-16.5 -7t-19.5 -11t-16.5 -12t-19 -15.5t-21 -14.5z" />
<glyph unicode="&#xf2;" horiz-adv-x="1050" d="M106 541q0 268 104.5 428.5t324.5 160.5q403 0 403 -563q0 -274 -103.5 -434t-318.5 -160q-209 0 -309.5 154t-100.5 414zM285 549q0 -434 235 -434q240 0 240 448q0 428 -234 428q-241 0 -241 -442zM291 1540l155 84l193 -319l-115 -56z" />
<glyph unicode="&#xf3;" horiz-adv-x="1050" d="M106 541q0 268 104.5 428.5t324.5 160.5q403 0 403 -563q0 -274 -103.5 -434t-318.5 -160q-209 0 -309.5 154t-100.5 414zM285 549q0 -434 235 -434q240 0 240 448q0 428 -234 428q-241 0 -241 -442zM440 1294l191 332l137 -78l-225 -305z" />
<glyph unicode="&#xf4;" horiz-adv-x="1050" d="M106 541q0 268 104.5 428.5t324.5 160.5q403 0 403 -563q0 -274 -103.5 -434t-318.5 -160q-209 0 -309.5 154t-100.5 414zM252 1311l283 260l284 -248l-82 -82l-202 164l-199 -164zM285 549q0 -434 235 -434q240 0 240 448q0 428 -234 428q-241 0 -241 -442z" />
<glyph unicode="&#xf5;" horiz-adv-x="1050" d="M106 541q0 268 104.5 428.5t324.5 160.5q403 0 403 -563q0 -274 -103.5 -434t-318.5 -160q-209 0 -309.5 154t-100.5 414zM225 1362q100 106 197 106q55 0 113.5 -30.5t91.5 -30.5q53 0 125 63l69 -77q-88 -111 -194 -111q-59 0 -116.5 32t-90.5 32q-10 0 -19.5 -1.5 t-19.5 -6.5t-16.5 -7t-19.5 -11t-16 -12t-19.5 -15.5t-20.5 -14.5zM285 549q0 -434 235 -434q240 0 240 448q0 428 -234 428q-241 0 -241 -442z" />
<glyph unicode="&#xf6;" horiz-adv-x="1050" d="M106 541q0 268 104.5 428.5t324.5 160.5q403 0 403 -563q0 -274 -103.5 -434t-318.5 -160q-209 0 -309.5 154t-100.5 414zM221 1434q0 51 31 81.5t80 30.5q43 0 72.5 -31.5t29.5 -80.5q0 -47 -29.5 -78t-72.5 -31q-49 0 -80 30t-31 79zM285 549q0 -434 235 -434 q240 0 240 448q0 428 -234 428q-241 0 -241 -442zM621 1433.5q0 49.5 28.5 81t73.5 31.5q47 0 79 -31.5t32 -81t-31 -79t-80 -29.5q-43 0 -72.5 29.5t-29.5 79z" />
<glyph unicode="&#xf7;" horiz-adv-x="997" d="M102 492l754 335l49 -139l-751 -336zM326 1055q0 51 34.5 86t83.5 35q47 0 81 -35t34 -86t-33.5 -86t-81.5 -35q-51 0 -84.5 35t-33.5 86zM553 92q0 51 35 86t84 35q47 0 80.5 -35t33.5 -86t-33.5 -86t-80.5 -35q-51 0 -85 35t-34 86z" />
<glyph unicode="&#xf8;" horiz-adv-x="1050" d="M-31 117l166 166q-29 106 -29 258q0 268 104.5 428.5t324.5 160.5q184 0 284 -122l131 131l115 -121l-164 -166q37 -117 37 -285q0 -274 -103.5 -434t-318.5 -160q-203 0 -307 150l-129 -127zM285 549q0 -72 6 -133l420 450q-57 125 -185 125q-241 0 -241 -442zM322 270 q57 -156 198 -155q240 0 240 448q0 80 -10 162z" />
<glyph unicode="&#xf9;" horiz-adv-x="1083" d="M162 295v809h174v-778q0 -111 31.5 -154t101.5 -43q123 0 276 143v832h175v-1104h-156l-12 125q-100 -78 -179 -115t-170 -37q-117 0 -179 72t-62 250zM297 1540l156 84l192 -319l-115 -56z" />
<glyph unicode="&#xfa;" horiz-adv-x="1083" d="M162 295v809h174v-778q0 -111 31.5 -154t101.5 -43q123 0 276 143v832h175v-1104h-156l-12 125q-100 -78 -179 -115t-170 -37q-117 0 -179 72t-62 250zM446 1294l191 332l137 -78l-225 -305z" />
<glyph unicode="&#xfb;" horiz-adv-x="1083" d="M162 295v809h174v-778q0 -111 31.5 -154t101.5 -43q123 0 276 143v832h175v-1104h-156l-12 125q-100 -78 -179 -115t-170 -37q-117 0 -179 72t-62 250zM258 1311l283 260l284 -248l-82 -82l-202 164l-199 -164z" />
<glyph unicode="&#xfc;" horiz-adv-x="1083" d="M162 295v809h174v-778q0 -111 31.5 -154t101.5 -43q123 0 276 143v832h175v-1104h-156l-12 125q-100 -78 -179 -115t-170 -37q-117 0 -179 72t-62 250zM227 1434q0 51 31 81.5t80 30.5q43 0 72.5 -31.5t29.5 -80.5q0 -47 -29.5 -78t-72.5 -31q-49 0 -80 30t-31 79z M627 1433.5q0 49.5 28.5 81t73.5 31.5q47 0 79 -31.5t32 -81t-31 -79t-80 -29.5q-43 0 -72.5 29.5t-29.5 79z" />
<glyph unicode="&#xfd;" horiz-adv-x="890" d="M14 1104h191l252 -940l248 940h180l-353 -1198q-59 -203 -154 -302.5t-263 -166.5l-64 141q127 57 200 136t116 218l32 107l-65 4zM369 1294l190 332l137 -78l-225 -305z" />
<glyph unicode="&#xfe;" horiz-adv-x="1019" d="M158 -557v2220h176v-598q102 70 188 70q197 0 300.5 -165t103.5 -407q0 -139 -41 -269t-141.5 -226.5t-239.5 -96.5q-72 0 -170 43v-571h-176zM334 174q80 -57 168 -57q66 0 115 44t74.5 114.5t36.5 139t11 136.5q0 188 -58 313t-183 125q-86 0 -164 -80v-735z" />
<glyph unicode="&#xff;" horiz-adv-x="890" d="M14 1104h191l252 -940l248 940h180l-353 -1198q-59 -203 -154 -302.5t-263 -166.5l-64 141q127 57 200 136t116 218l32 107l-65 4zM150 1434q0 51 30.5 81.5t79.5 30.5q43 0 72.5 -31.5t29.5 -80.5q0 -47 -29.5 -78t-72.5 -31q-49 0 -79.5 30t-30.5 79zM549 1433.5 q0 49.5 28.5 81t73.5 31.5q47 0 79 -31.5t32 -81t-31 -79t-80 -29.5q-43 0 -72.5 29.5t-29.5 79z" />
<glyph unicode="&#x152;" horiz-adv-x="1699" d="M90 756q0 94 13.5 189t53.5 205t103.5 191.5t174 137t251.5 55.5q41 0 134 -10.5t149 -10.5h633v-145h-566v-491h490v-144h-490v-588h604v-145h-655q-39 0 -143.5 -10t-155.5 -10q-121 0 -219 39.5t-160.5 107.5t-106.5 147.5t-67.5 172t-33 166t-9.5 143.5zM274 755.5 q0 -71.5 7.5 -142t33 -164t67.5 -161t121 -115.5t183 -48q55 0 178 20v1221q-74 20 -178 20q-98 0 -175 -46t-120 -114.5t-70.5 -158.5t-37 -165t-9.5 -146.5z" />
<glyph unicode="&#x153;" horiz-adv-x="1454" d="M82 557q0 66 9 133.5t36 150.5t68 145.5t115.5 105.5t168.5 43q201 0 285 -244q92 244 274 244q170 0 252 -138.5t84 -353.5q0 -37 -10 -98h-526q23 -436 231 -436q109 0 240 96l47 -135q-143 -98 -305 -99q-205 0 -287 252q-92 -252 -291 -252q-115 0 -197.5 59.5 t-121.5 156t-55.5 186.5t-16.5 184zM264 565q0 -70 7.5 -135t27.5 -142t66.5 -124t111.5 -47q197 0 197 438q0 434 -199 434q-66 0 -111 -44t-65 -116.5t-27.5 -134t-7.5 -129.5zM840 659h370q4 346 -180 347q-88 0 -134 -96.5t-56 -250.5z" />
<glyph unicode="&#x178;" horiz-adv-x="974" d="M-33 1513h199l326 -837l331 837h183l-431 -1017v-496h-174v492zM174 1767.5q0 49.5 33 82t82 32.5q47 0 77.5 -32.5t30.5 -82t-31.5 -80t-76.5 -30.5q-51 0 -83 30.5t-32 80zM584 1767q0 49 31.5 82t76.5 33q51 0 85 -32.5t34 -82t-34 -80t-85 -30.5q-43 0 -75.5 31.5 t-32.5 78.5z" />
<glyph unicode="&#x2c6;" horiz-adv-x="487" d="M-37 1311l283 260l284 -248l-81 -82l-203 164l-199 -164z" />
<glyph unicode="&#x2dc;" horiz-adv-x="647" d="M4 1362q100 106 197 106q55 0 113.5 -30.5t91.5 -30.5q53 0 124 63l70 -77q-88 -111 -194 -111q-59 0 -117 32t-90 32q-10 0 -19.5 -1.5t-19.5 -6.5t-16.5 -7t-19.5 -11t-16.5 -12t-19.5 -15.5t-20 -14.5z" />
<glyph unicode="&#x2000;" horiz-adv-x="1011" />
<glyph unicode="&#x2001;" horiz-adv-x="2025" />
<glyph unicode="&#x2002;" horiz-adv-x="1011" />
<glyph unicode="&#x2003;" horiz-adv-x="2025" />
<glyph unicode="&#x2004;" horiz-adv-x="673" />
<glyph unicode="&#x2005;" horiz-adv-x="505" />
<glyph unicode="&#x2006;" horiz-adv-x="335" />
<glyph unicode="&#x2007;" horiz-adv-x="335" />
<glyph unicode="&#x2008;" horiz-adv-x="251" />
<glyph unicode="&#x2009;" horiz-adv-x="403" />
<glyph unicode="&#x200a;" horiz-adv-x="110" />
<glyph unicode="&#x2010;" horiz-adv-x="755" d="M104 596v145h541v-145h-541z" />
<glyph unicode="&#x2011;" horiz-adv-x="755" d="M104 596v145h541v-145h-541z" />
<glyph unicode="&#x2012;" horiz-adv-x="755" d="M104 596v145h541v-145h-541z" />
<glyph unicode="&#x2013;" horiz-adv-x="1144" d="M104 596v145h930v-145h-930z" />
<glyph unicode="&#x2014;" horiz-adv-x="1730" d="M104 596v145h1516v-145h-1516z" />
<glyph unicode="&#x2018;" horiz-adv-x="358" d="M115 1380q0 184 174 375l106 -90q-100 -119 -100 -223q0 -39 26.5 -81t26.5 -83t-27.5 -68.5t-72.5 -27.5q-61 0 -97 55t-36 143z" />
<glyph unicode="&#x2019;" horiz-adv-x="358" d="M25 1225q100 119 100 223q0 39 -26.5 81t-26.5 83t27.5 68.5t72.5 27.5q61 0 97 -55.5t36 -143.5q0 -184 -174 -374z" />
<glyph unicode="&#x201a;" horiz-adv-x="428" d="M66 -246q100 119 100 223q0 39 -26.5 81t-26.5 83t27.5 69t72.5 28q61 0 97 -55.5t36 -143.5q0 -184 -174 -375z" />
<glyph unicode="&#x201c;" horiz-adv-x="712" d="M115 1380q0 184 174 375l106 -90q-100 -119 -100 -223q0 -39 26.5 -81t26.5 -83t-27.5 -68.5t-72.5 -27.5q-61 0 -97 55t-36 143zM504 1380q0 184 174 375l106 -90q-100 -119 -100 -223q0 -39 26.5 -81t26.5 -83t-27.5 -68.5t-72.5 -27.5q-61 0 -97 55t-36 143z" />
<glyph unicode="&#x201d;" horiz-adv-x="712" d="M25 1225q100 119 100 223q0 39 -26.5 81t-26.5 83t27.5 68.5t72.5 27.5q61 0 97 -55.5t36 -143.5q0 -184 -174 -374zM416 1225q100 119 100 223q0 39 -26.5 81t-26.5 83t27.5 68.5t72.5 27.5q61 0 97 -55.5t36 -143.5q0 -184 -174 -374z" />
<glyph unicode="&#x201e;" horiz-adv-x="782" d="M66 -244q100 119 100 224q0 39 -26.5 80.5t-26.5 82.5t27.5 69t72.5 28q61 0 97 -55.5t36 -143.5q0 -184 -174 -375zM457 -244q100 119 100 224q0 39 -26.5 80.5t-26.5 82.5t27.5 69t72.5 28q61 0 97 -55.5t36 -143.5q0 -184 -174 -375z" />
<glyph unicode="&#x2022;" horiz-adv-x="638" d="M33 702q0 127 82 216.5t198 89.5q119 0 203 -89.5t84 -216.5q0 -125 -84 -214t-203 -89q-117 0 -198.5 88t-81.5 215z" />
<glyph unicode="&#x2026;" horiz-adv-x="1216" d="M104 92q0 51 35 86t84 35q47 0 81 -35t34 -86t-34 -86t-81 -35q-51 0 -85 35t-34 86zM539 92q0 51 34.5 86t83.5 35q47 0 81 -35t34 -86t-33.5 -86t-81.5 -35q-51 0 -84.5 35t-33.5 86zM973 92q0 51 34.5 86t84.5 35q47 0 80.5 -35t33.5 -86t-33.5 -86t-80.5 -35 q-51 0 -85 35t-34 86z" />
<glyph unicode="&#x202f;" horiz-adv-x="403" />
<glyph unicode="&#x2039;" horiz-adv-x="653" d="M90 557l316 463l137 -55l-236 -408l236 -401l-137 -62z" />
<glyph unicode="&#x203a;" horiz-adv-x="653" d="M111 152l239 405l-239 404l135 59l317 -463l-319 -461z" />
<glyph unicode="&#x205f;" horiz-adv-x="505" />
<glyph unicode="&#x20ac;" horiz-adv-x="1036" d="M90 559v131h121v58q0 76 2 114h-123v135h137q39 248 160 395.5t336 147.5q123 0 250 -59l-47 -148q-100 59 -195 60q-260 0 -317 -396h391v-135h-404q-2 -33 -2 -102q0 -47 2 -70h404v-131h-395q25 -209 101.5 -325.5t209.5 -116.5q98 0 219 63l45 -143 q-154 -66 -278 -66q-217 0 -337 158t-149 430h-131z" />
<glyph unicode="&#x2122;" horiz-adv-x="1417" d="M-2 1550v113h571v-113h-219v-731h-131v731h-221zM569 821l49 842h130l213 -641l215 641h122l52 -842h-136l-26 615l-195 -615h-69l-199 613l-33 -613h-123z" />
<glyph unicode="&#xfb01;" horiz-adv-x="1048" d="M43 973v131h129v180q0 410 348 410q137 0 318 -84l-50 -129q-137 76 -256 75q-104 0 -145 -67.5t-41 -204.5v-180h551v-1104h-174v973h-377v-973h-174v973h-129z" />
<glyph unicode="&#xfb02;" horiz-adv-x="1054" d="M45 973v131h127v180q0 410 358 410q174 0 375 -88v-1606h-174v1522q-109 37 -201 37q-102 0 -143 -70t-41 -207v-178h240v-131h-240v-973h-174v973h-127z" />
<glyph unicode="&#xfb03;" horiz-adv-x="1705" d="M1332 1460q0 51 31.5 85t78.5 34t80 -34t33 -85t-33 -84t-80 -33q-49 0 -79.5 33t-30.5 84zM1356 0v1104h176v-1104h-176zM651 973v131h127v215q0 193 75 284t247 91q119 0 238 -45l-37 -131q-94 39 -176 38q-100 0 -136.5 -53t-36.5 -184v-215h240v-131h-240v-973h-174 v973h-127zM61 973v131h127v215q0 193 75 284t247 91q119 0 238 -45l-37 -131q-94 39 -176 38q-100 0 -136.5 -53t-36.5 -184v-215h240v-131h-240v-973h-174v973h-127z" />
<glyph unicode="&#xfb04;" horiz-adv-x="1695" d="M1350 0v1663h176v-1663h-176zM651 973v131h127v215q0 193 75 284t247 91q119 0 238 -45l-37 -131q-94 39 -176 38q-100 0 -136.5 -53t-36.5 -184v-215h240v-131h-240v-973h-174v973h-127zM61 973v131h127v215q0 193 75 284t247 91q119 0 238 -45l-37 -131q-94 39 -176 38 q-100 0 -136.5 -53t-36.5 -184v-215h240v-131h-240v-973h-174v973h-127z" />
</font>
</defs>
</svg>
